<svg xmlns="http://www.w3.org/2000/svg" width="64" height="64" viewBox="0 0 64 64">
  <defs>
    <linearGradient id="grad1" x1="0%" y1="0%" x2="100%" y2="100%">
      <stop offset="0%" style="stop-color:#76b900;stop-opacity:1" />
      <stop offset="100%" style="stop-color:#4a7300;stop-opacity:1" />
    </linearGradient>
  </defs>
  
  <!-- GPU Chip -->
  <rect x="8" y="12" width="48" height="32" rx="4" ry="4" fill="url(#grad1)" stroke="#2d4d00" stroke-width="2"/>
  
  <!-- GPU Pins -->
  <rect x="4" y="18" width="4" height="3" fill="#333"/>
  <rect x="4" y="24" width="4" height="3" fill="#333"/>
  <rect x="4" y="30" width="4" height="3" fill="#333"/>
  <rect x="4" y="36" width="4" height="3" fill="#333"/>
  
  <rect x="56" y="18" width="4" height="3" fill="#333"/>
  <rect x="56" y="24" width="4" height="3" fill="#333"/>
  <rect x="56" y="30" width="4" height="3" fill="#333"/>
  <rect x="56" y="36" width="4" height="3" fill="#333"/>
  
  <!-- NVIDIA text -->
  <text x="32" y="30" font-family="Arial, sans-serif" font-size="8" font-weight="bold" text-anchor="middle" fill="white">GPU</text>
  
  <!-- Monitoring waves -->
  <path d="M 16 48 Q 20 44 24 48 Q 28 52 32 48 Q 36 44 40 48 Q 44 52 48 48" stroke="#76b900" stroke-width="2" fill="none"/>
  <path d="M 14 52 Q 18 48 22 52 Q 26 56 30 52 Q 34 48 38 52 Q 42 56 46 52 Q 50 48 54 52" stroke="#4a7300" stroke-width="2" fill="none"/>
</svg>
